<svg xmlns="http://www.w3.org/2000/svg" data-name="Layer 2" viewBox="0 0 544.43 307.15"><g data-name="Layer 1"><path d="M533 146.6c-14.97-16.24-39.34-19-57.77-6.15l-.08-24.05h-175.9v37.43h20.95l.06-19.22h136.73l.02 31.45 20.39-.12c5.01-11.47 17.03-17.03 28.18-14.84 11.75 2.31 20.09 12.63 20.56 23.78.51 12.32-7.63 22.6-18.56 25.65-12.08 3.37-23.78-2.2-29.59-12.9l-20.96.07-.13 25.21c-.15 29.33-23.75 53.44-52.72 54.88l-30.05.19v18.22l31.97-.24c39.35-2.51 69.02-35.37 69.21-74.12 19.52 13.16 44.23 9.38 58.56-7.26 14.47-16.81 13.97-41.88-.86-57.97Z"/><path d="m204.39 173.47-37.47.03v20.21h37.45l.04 28.17h21.95l-.01-48.42 24.43.11.05 60.27h69.39v-62.8l-20.96-.05-.02 15.23-26.43-.04v-71.02l-22.01-.01-.02 38.33-24.42.07-.03-16.97h-66.86l-.04 20.23h44.93l.02 16.67Zm68.42 31.68h26.44v10.22h-26.44zM355.12 105.38c18.63-13.23 25.71-33.45 12.64-52.46C357.32 37.73 346.52 18.1 353.21 0c-5.16 3.88-9.12 8.04-12.81 12.9-7.98 11.56-8.11 25.86.09 37.48 11.9 16.4 23.32 35.88 14.63 55M341.94 160.03h22.21v73.8h-22.21zM391.56 210.3a4.506 4.506 0 0 0 6.15 1.65l9.7-5.6v11.21c0 2.49 2.01 4.5 4.5 4.5s4.5-2.01 4.5-4.5v-11.21l9.7 5.6a4.502 4.502 0 1 0 4.5-7.8l-9.7-5.6 9.7-5.6a4.506 4.506 0 0 0 1.65-6.15 4.506 4.506 0 0 0-6.15-1.65l-9.7 5.6v-11.21c0-2.49-2.01-4.5-4.5-4.5s-4.5 2.01-4.5 4.5v11.21l-9.7-5.6a4.502 4.502 0 1 0-4.5 7.8l9.7 5.6-9.7 5.6a4.506 4.506 0 0 0-1.65 6.15M327.88 239.59c-18.68 0-33.82 15.13-33.82 33.78s15.14 33.78 33.82 33.78 33.82-15.12 33.82-33.78-15.14-33.78-33.82-33.78m18.7 39.38a4.506 4.506 0 0 1 1.65 6.15 4.506 4.506 0 0 1-6.15 1.65l-9.7-5.6v11.21c0 2.49-2.01 4.5-4.5 4.5s-4.5-2.01-4.5-4.5v-11.21l-9.7 5.6a4.502 4.502 0 1 1-4.5-7.8l9.7-5.6-9.7-5.6a4.506 4.506 0 0 1-1.65-6.15 4.506 4.506 0 0 1 6.15-1.65l9.7 5.6v-11.21c0-2.49 2.01-4.5 4.5-4.5s4.5 2.01 4.5 4.5v11.21l9.7-5.6a4.502 4.502 0 1 1 4.5 7.8l-9.7 5.6zM11.18 265.5c2.76 0 4.8 1.61 5.2 4.24h5c-.66-5.46-4.8-8.62-10.29-8.62-6.28 0-11.08 4.47-11.08 12.23s4.7 12.23 11.08 12.23c6.05 0 9.73-4.01 10.29-8.42l-5-.03c-.49 2.57-2.5 4.08-5.23 4.08-3.65 0-6.12-2.73-6.12-7.86s2.43-7.86 6.15-7.86ZM35.52 261.12c-6.35 0-11.15 4.47-11.15 12.23s4.8 12.23 11.15 12.23 11.12-4.47 11.12-12.23-4.83-12.23-11.12-12.23m0 20.09c-3.68 0-6.12-2.76-6.12-7.86s2.43-7.86 6.12-7.86 6.08 2.76 6.08 7.86-2.4 7.86-6.08 7.86M50.18 285.26h4.94v-9.87h9.73v-4.07h-9.73v-5.79h10.75v-4.08H50.18zM69.13 285.26h4.93v-9.87h9.73v-4.07h-9.73v-5.79h10.75v-4.08H69.13zM93 275.39h10.23v-4.07H93v-5.79h11.05v-4.08H88.07v23.81h16.01v-4.08H93zM112.83 275.39h10.23v-4.07h-10.23v-5.79h11.05v-4.08H107.9v23.81h16.01v-4.08h-11.08zM153.87 273.68h-4.04c0 1.55-.38 2.94-.99 4.11l-3.98-4.57 1.38-1.02c2.01-1.45 3.16-3.22 3.16-5.49 0-3.03-2.33-5.59-6.15-5.59s-6.48 2.66-6.48 6.12c0 2.12 1.02 3.86 2.3 5.46-2.61 1.79-4.37 3.45-4.37 6.25 0 3.75 3.03 6.68 7.96 6.68 2.1 0 4.36-.61 6.12-2.01l1.45 1.64h5.1l-3.58-4.11c1.3-1.74 2.14-4.23 2.14-7.47Zm-10.59-8.61c1.41 0 2.2.99 2.2 1.91 0 1.05-.56 1.87-1.74 2.63l-1.25.82c-.92-1.12-1.55-2.12-1.55-3.12 0-1.22.95-2.24 2.33-2.24Zm-.39 16.61c-2.1 0-3.45-1.28-3.45-2.99 0-.92.62-1.97 1.97-2.96l.16-.13 4.57 5.1c-1.04.64-2.15.99-3.26.99ZM178.18 272.89v-.23c2.47-.56 4.28-2.3 4.28-5.1 0-3.58-2.63-6.12-7.89-6.12h-9.47v23.81h10.1c5.39 0 8.22-2.8 8.22-6.58 0-3.52-2.53-5.66-5.23-5.79Zm-8.16-7.43h3.91c2.27 0 3.52 1.18 3.52 2.89 0 1.91-1.55 3.06-3.62 3.06h-3.81zm4.18 15.72h-4.18v-6.38h4.31c2.43 0 3.95 1.41 3.95 3.42 0 1.78-1.22 2.96-4.08 2.96M186.53 261.45h4.93v23.81h-4.93zM210.44 276.58h-.23l-10.4-15.13h-4.34v23.81h4.94v-15.13h.19l10.46 15.13h4.28v-23.81h-4.9zM230.46 276.28h5.16c-.07 3.01-2.09 4.93-5.49 4.93-3.78 0-6.22-2.86-6.22-7.89s2.5-7.83 6.18-7.83c2.6 0 4.41 1.38 5.06 3.62h5c-.66-4.7-4.8-7.99-10.16-7.99-6.28 0-11.12 4.54-11.12 12.27s4.54 12.2 11.21 12.2c6.02 0 10.29-3.81 10.29-10.06v-2.96h-9.93v3.72ZM254.87 271.48l-2.14-.53c-2.04-.46-3.85-1.25-3.81-2.96.03-1.58 1.41-2.73 3.91-2.73s3.91 1.12 4.11 2.99h4.74c-.07-4.21-3.55-7.14-8.81-7.14s-9.01 2.86-9.01 7.2c0 3.49 2.47 5.49 6.48 6.48l2.6.62c2.6.66 4.08 1.41 4.08 3.03 0 1.78-1.68 2.99-4.28 2.99s-4.54-1.22-4.7-3.62h-4.8c.13 5.1 3.81 7.76 9.57 7.76s9.21-2.76 9.21-7.14c0-3.98-3.06-6.05-7.14-6.97ZM279.96 276.51c0 2.73-1.91 4.74-4.9 4.74s-4.9-2.01-4.9-4.74v-15.06h-4.93v15.46c0 5.23 3.91 8.68 9.83 8.68s9.87-3.45 9.87-8.68v-15.46h-4.97zM314.99 93.22a2.874 2.874 0 0 0 3.93 1.05l6.2-3.58v7.16c0 1.59 1.29 2.87 2.87 2.87s2.87-1.29 2.87-2.87v-7.16l6.2 3.58c1.37.79 3.13.32 3.93-1.05.79-1.37.32-3.13-1.05-3.93l-6.2-3.58 6.2-3.58a2.874 2.874 0 0 0 1.05-3.93 2.874 2.874 0 0 0-3.93-1.05l-6.2 3.58v-7.16c0-1.59-1.29-2.87-2.87-2.87s-2.87 1.29-2.87 2.87v7.16l-6.2-3.58a2.89 2.89 0 0 0-3.93 1.05 2.89 2.89 0 0 0 1.05 3.93l6.2 3.58-6.2 3.58a2.874 2.874 0 0 0-1.05 3.93"/></g></svg>