<svg xmlns="http://www.w3.org/2000/svg" data-name="Layer 1" viewBox="0 0 24 24"><path d="M18 18.5V20H6v-1.5A1.5 1.5 0 0 1 7.5 17H10s0 1 1 1h2s1 .105 1-1h2.5a1.5 1.5 0 0 1 1.5 1.5m0 2.5h-4c0 1.105-1 1-1 1h-2c-1 0-1-1-1-1H6v1.5A1.5 1.5 0 0 0 7.5 24h9a1.5 1.5 0 0 0 1.5-1.5zM4 5a1 1 0 0 1 1-1h1.35C7.176 1.673 9.393 0 12 0c3.309 0 6 2.691 6 6s-2.691 6-6 6-6-2.691-6-6H5a1 1 0 0 1-1-1m12 1H8c0 2.206 1.794 4 4 4s4-1.794 4-4M8.556 4h6.887c-.694-1.19-1.97-2-3.444-2s-2.75.81-3.444 2zM14 13h-4c-4.411 0-8 3.589-8 8v2a1 1 0 1 0 2 0v-2c0-3.309 2.691-6 6-6h4c3.309 0 6 2.691 6 6v2a1 1 0 1 0 2 0v-2c0-4.411-3.589-8-8-8"/></svg>